HIERARCHY
ROOT Hips
{
	OFFSET 0.000000 100.481300 0.000000
	CHANNELS 6 Xposition Yposition Zposition Xrotation Yrotation Zrotation 
	JOINT Spine
	{
		OFFSET -0.279200 12.230698 -2.892100
		CHANNELS 3 Xrotation Yrotation Zrotation
		JOINT Spine1
		{
			OFFSET -0.232667 10.192268 -1.242267
			CHANNELS 3 Xrotation Yrotation Zrotation
			JOINT Spine1_split
			{
				OFFSET -0.232667 10.192268 -1.242267
				CHANNELS 3 Xrotation Yrotation Zrotation
				JOINT Spine2
				{
					OFFSET -0.232667 10.192268 -1.242267
					CHANNELS 3 Xrotation Yrotation Zrotation
					JOINT Neck
					{
						OFFSET -0.418800 17.814194 8.416900
						CHANNELS 3 Xrotation Yrotation Zrotation
						JOINT Head
						{
							OFFSET 0.000000 7.031097 3.806800
							CHANNELS 3 Xrotation Yrotation Zrotation
							JOINT HeadTop_End
							{
								OFFSET 0.000000 24.646606 12.978600
								CHANNELS 3 Xrotation Yrotation Zrotation
								End Site
								{
									OFFSET 0.000000 0.000000 0.000000
								}
							}
						}
					}
					JOINT LeftShoulder
					{
						OFFSET 8.476499 7.247704 -3.868750
						CHANNELS 3 Xrotation Yrotation Zrotation
						JOINT LeftShoulder_split
						{
							OFFSET 8.476499 7.247704 -3.868750
							CHANNELS 3 Xrotation Yrotation Zrotation
							JOINT LeftArm
							{
								OFFSET 9.308998 -2.777710 0.208600
								CHANNELS 3 Xrotation Yrotation Zrotation
								JOINT LeftForeArm
								{
									OFFSET 29.972298 0.000000 0.000000
									CHANNELS 3 Xrotation Yrotation Zrotation
									JOINT LeftHand
									{
										OFFSET 26.026505 0.000000 0.000000
										CHANNELS 3 Xrotation Yrotation Zrotation
										JOINT LeftHandThumb1
										{
											OFFSET 12.240501 -7.147949 9.207150
											CHANNELS 3 Xrotation Yrotation Zrotation
											JOINT LeftHandThumb2
											{
												OFFSET 4.138618 -2.389435 2.389433
												CHANNELS 3 Xrotation Yrotation Zrotation
												JOINT LeftHandThumb3
												{
													OFFSET 2.726913 -1.574387 1.574386
													CHANNELS 3 Xrotation Yrotation Zrotation
													JOINT LeftHandThumb4
													{
														OFFSET 3.941010 -2.275345 2.275342
														CHANNELS 3 Xrotation Yrotation Zrotation
														End Site
														{
															OFFSET 0.000000 0.000000 0.000000
														}
													}
												}
											}
										}
										JOINT LeftHandIndex1
										{
											OFFSET 24.424698 -1.985611 5.953459
											CHANNELS 3 Xrotation Yrotation Zrotation
											JOINT LeftHandIndex2
											{
												OFFSET 6.426697 0.000000 0.000000
												CHANNELS 3 Xrotation Yrotation Zrotation
												JOINT LeftHandIndex3
												{
													OFFSET 5.337898 0.000000 0.000000
													CHANNELS 3 Xrotation Yrotation Zrotation
													JOINT LeftHandIndex4
													{
														OFFSET 4.409401 0.000000 0.000000
														CHANNELS 3 Xrotation Yrotation Zrotation
														End Site
														{
															OFFSET 0.000000 0.000000 0.000000
														}
													}
												}
											}
										}
										JOINT LeftHandMiddle1
										{
											OFFSET 23.810104 0.000000 0.000000
											CHANNELS 3 Xrotation Yrotation Zrotation
											JOINT LeftHandMiddle2
											{
												OFFSET 7.176498 0.000000 0.000000
												CHANNELS 3 Xrotation Yrotation Zrotation
												JOINT LeftHandMiddle3
												{
													OFFSET 6.774902 0.000000 0.000000
													CHANNELS 3 Xrotation Yrotation Zrotation
													JOINT LeftHandMiddle4
													{
														OFFSET 5.403328 0.000000 0.000000
														CHANNELS 3 Xrotation Yrotation Zrotation
														End Site
														{
															OFFSET 0.000000 0.000000 0.000000
														}
													}
												}
											}
										}
										JOINT LeftHandRing1
										{
											OFFSET 22.908401 -0.839279 -6.020567
											CHANNELS 3 Xrotation Yrotation Zrotation
											JOINT LeftHandRing2
											{
												OFFSET 6.337502 0.000000 0.000000
												CHANNELS 3 Xrotation Yrotation Zrotation
												JOINT LeftHandRing3
												{
													OFFSET 5.779297 0.000000 0.000000
													CHANNELS 3 Xrotation Yrotation Zrotation
													JOINT LeftHandRing4
													{
														OFFSET 4.965698 0.000000 0.000000
														CHANNELS 3 Xrotation Yrotation Zrotation
														End Site
														{
															OFFSET 0.000000 0.000000 0.000000
														}
													}
												}
											}
										}
										JOINT LeftHandPinky1
										{
											OFFSET 20.037003 -1.530319 -10.950146
											CHANNELS 3 Xrotation Yrotation Zrotation
											JOINT LeftHandPinky2
											{
												OFFSET 5.254700 0.000000 0.000000
												CHANNELS 3 Xrotation Yrotation Zrotation
												JOINT LeftHandPinky3
												{
													OFFSET 4.810204 0.000000 0.000000
													CHANNELS 3 Xrotation Yrotation Zrotation
													JOINT LeftHandPinky4
													{
														OFFSET 3.647202 0.000000 0.000000
														CHANNELS 3 Xrotation Yrotation Zrotation
														End Site
														{
															OFFSET 0.000000 0.000000 0.000000
														}
													}
												}
											}
										}
									}
								}
							}
						}
					}
					JOINT RightShoulder
					{
						OFFSET -7.570500 7.247704 -3.868750
						CHANNELS 3 Xrotation Yrotation Zrotation
						JOINT RightShoulder_split
						{
							OFFSET -7.570500 7.247704 -3.868750
							CHANNELS 3 Xrotation Yrotation Zrotation
							JOINT RightArm
							{
								OFFSET -9.308998 -2.777710 0.208500
								CHANNELS 3 Xrotation Yrotation Zrotation
								JOINT RightForeArm
								{
									OFFSET -29.972300 0.000000 0.000000
									CHANNELS 3 Xrotation Yrotation Zrotation
									JOINT RightHand
									{
										OFFSET -26.026505 0.000000 0.000000
										CHANNELS 3 Xrotation Yrotation Zrotation
										JOINT RightHandThumb1
										{
											OFFSET -12.240601 -7.148026 9.207092
											CHANNELS 3 Xrotation Yrotation Zrotation
											JOINT RightHandThumb2
											{
												OFFSET -4.138618 -2.389435 2.389433
												CHANNELS 3 Xrotation Yrotation Zrotation
												JOINT RightHandThumb3
												{
													OFFSET -2.726974 -1.574417 1.574421
													CHANNELS 3 Xrotation Yrotation Zrotation
													JOINT RightHandThumb4
													{
														OFFSET -3.941010 -2.275345 2.275343
														CHANNELS 3 Xrotation Yrotation Zrotation
														End Site
														{
															OFFSET 0.000000 0.000000 0.000000
														}
													}
												}
											}
										}
										JOINT RightHandIndex1
										{
											OFFSET -24.424698 -1.985657 5.953444
											CHANNELS 3 Xrotation Yrotation Zrotation
											JOINT RightHandIndex2
											{
												OFFSET -6.426697 0.000000 0.000000
												CHANNELS 3 Xrotation Yrotation Zrotation
												JOINT RightHandIndex3
												{
													OFFSET -5.337898 0.000000 0.000000
													CHANNELS 3 Xrotation Yrotation Zrotation
													JOINT RightHandIndex4
													{
														OFFSET -4.409401 0.000000 0.000000
														CHANNELS 3 Xrotation Yrotation Zrotation
														End Site
														{
															OFFSET 0.000000 0.000000 0.000000
														}
													}
												}
											}
										}
										JOINT RightHandMiddle1
										{
											OFFSET -23.810097 0.000000 0.000000
											CHANNELS 3 Xrotation Yrotation Zrotation
											JOINT RightHandMiddle2
											{
												OFFSET -7.176498 0.000000 0.000000
												CHANNELS 3 Xrotation Yrotation Zrotation
												JOINT RightHandMiddle3
												{
													OFFSET -6.774902 0.000000 0.000000
													CHANNELS 3 Xrotation Yrotation Zrotation
													JOINT RightHandMiddle4
													{
														OFFSET -5.403328 0.000000 0.000000
														CHANNELS 3 Xrotation Yrotation Zrotation
														End Site
														{
															OFFSET 0.000000 0.000000 0.000000
														}
													}
												}
											}
										}
										JOINT RightHandRing1
										{
											OFFSET -22.908302 -0.839325 -6.020576
											CHANNELS 3 Xrotation Yrotation Zrotation
											JOINT RightHandRing2
											{
												OFFSET -6.337502 0.000000 0.000000
												CHANNELS 3 Xrotation Yrotation Zrotation
												JOINT RightHandRing3
												{
													OFFSET -5.779297 0.000000 0.000000
													CHANNELS 3 Xrotation Yrotation Zrotation
													JOINT RightHandRing4
													{
														OFFSET -4.965698 0.000000 0.000000
														CHANNELS 3 Xrotation Yrotation Zrotation
														End Site
														{
															OFFSET 0.000000 0.000000 0.000000
														}
													}
												}
											}
										}
										JOINT RightHandPinky1
										{
											OFFSET -20.037003 -1.530334 -10.950259
											CHANNELS 3 Xrotation Yrotation Zrotation
											JOINT RightHandPinky2
											{
												OFFSET -5.254700 0.000000 0.000000
												CHANNELS 3 Xrotation Yrotation Zrotation
												JOINT RightHandPinky3
												{
													OFFSET -4.810204 0.000000 0.000000
													CHANNELS 3 Xrotation Yrotation Zrotation
													JOINT RightHandPinky4
													{
														OFFSET -3.647202 0.000000 0.000000
														CHANNELS 3 Xrotation Yrotation Zrotation
														End Site
														{
															OFFSET 0.000000 0.000000 0.000000
														}
													}
												}
											}
										}
									}
								}
							}
						}
					}
				}
			}
		}
	}
	JOINT LeftUpLeg
	{
		OFFSET 15.427100 -6.655098 0.678600
		CHANNELS 3 Xrotation Yrotation Zrotation
		JOINT LeftLeg
		{
			OFFSET 4.081073 -39.591068 13.024000
			CHANNELS 3 Xrotation Yrotation Zrotation
			JOINT LeftFoot
			{
				OFFSET -4.081074 -37.707932 -15.979700
				CHANNELS 3 Xrotation Yrotation Zrotation
				JOINT LeftToeBase
				{
					OFFSET 5.346399 -15.068900 20.645000
					CHANNELS 3 Xrotation Yrotation Zrotation
					JOINT LeftToe_End
					{
						OFFSET 2.754700 0.931300 11.300900
						CHANNELS 3 Xrotation Yrotation Zrotation
						End Site
						{
							OFFSET 0.000000 0.000000 0.000000
						}
					}
				}
			}
		}
	}
	JOINT RightUpLeg
	{
		OFFSET -15.569500 -6.655098 0.678600
		CHANNELS 3 Xrotation Yrotation Zrotation
		JOINT RightLeg
		{
			OFFSET -4.081825 -39.591045 13.023800
			CHANNELS 3 Xrotation Yrotation Zrotation
			JOINT RightFoot
			{
				OFFSET 4.081824 -37.707954 -15.979600
				CHANNELS 3 Xrotation Yrotation Zrotation
				JOINT RightToeBase
				{
					OFFSET -5.346400 -15.068900 20.645000
					CHANNELS 3 Xrotation Yrotation Zrotation
					JOINT RightToe_End
					{
						OFFSET -2.754700 0.931300 11.300900
						CHANNELS 3 Xrotation Yrotation Zrotation
						End Site
						{
							OFFSET 0.000000 0.000000 0.000000
						}
					}
				}
			}
		}
	}
}
MOTION
Frames: 4
Frame Time: 0.016667
0.314975 69.948227 0.095612 -4.298824 -74.737146 -2.579686 2.947647 -0.497247 -2.259766 5.893829 -0.904735 -3.151098 0.000000 0.000000 0.000000 5.893816 -0.904605 -3.151107 -2.451540 24.309799 7.456974 0.154237 27.772029 -8.534005 -0.000001 -0.000002 0.000000 0.279787 -7.010227 -19.556601 0.000000 0.000000 0.000000 -39.504059 -20.309113 -2.427267 -5.614202 -32.071577 -2.800582 4.686483 -29.138024 18.780589 18.604754 9.201135 -20.335708 9.366548 23.517108 3.907244 15.631120 30.652216 0.949977 0.000000 0.000000 0.000000 5.062913 7.259543 -60.393482 0.009024 -4.396063 -76.234740 -0.014955 1.943551 -28.702791 -0.000000 0.000004 0.000001 -0.063973 4.758036 -60.986814 -0.080427 -4.896943 -84.974363 -0.077670 1.572466 -47.862697 -0.000003 -0.000002 0.000004 -0.034407 -0.057013 -61.362269 -0.169957 -1.351960 -91.625362 -0.058874 1.209379 -28.345017 -0.000000 -0.000000 -0.000002 -4.255101 -2.157326 -63.603172 -0.059586 -0.064766 -85.011075 -0.006182 -0.027526 -25.011489 -0.000002 0.000001 -0.000002 0.636235 13.855935 9.110356 0.000000 0.000000 0.000000 35.455259 67.114409 -18.850882 0.649659 83.885303 -11.766974 -31.174049 -5.150274 -0.072260 15.959765 -4.187775 29.032201 -14.791924 -41.235512 -16.515543 1.538914 -36.186489 -16.491859 -0.000001 -0.000000 -0.000004 5.358211 -4.863572 67.585043 0.006249 4.394825 68.693425 -0.015228 -1.944181 51.003796 0.000003 0.000001 0.000001 -0.076821 -4.752199 70.834888 -0.076455 4.897889 82.216333 -0.094628 -1.559168 59.800335 -0.000002 -0.000003 -0.000001 -1.164527 -6.475318 73.357482 -0.172078 1.351247 92.834381 -0.068413 -1.195392 42.966278 0.000004 -0.000000 0.000001 -5.344948 -12.802390 81.125251 -0.058394 0.065303 84.695992 -0.011914 0.037071 34.883296 -0.000001 -0.000001 0.000000 -39.716761 10.786456 55.118404 35.985849 -4.449508 -8.876653 11.361962 -0.595022 -26.650971 -0.017721 -0.002769 -0.037419 0.000000 -0.000002 0.000000 -38.209041 1.902061 -30.229301 56.605029 12.350018 -5.710720 -15.760551 -6.292930 24.821078 -0.005259 -0.000123 -0.000155 -0.000000 -0.000000 0.000000 
0.314728 69.949608 0.094421 -4.298825 -74.737153 -2.579185 2.947645 -0.497236 -2.260268 5.893829 -0.904741 -3.151096 0.000000 0.000000 0.000000 5.893812 -0.904580 -3.151110 -2.481192 24.333302 7.459441 0.160616 27.801740 -8.536965 -0.000000 -0.000002 0.000000 0.279792 -7.010242 -19.556601 0.000000 0.000000 0.000000 -39.570021 -20.279800 -2.378973 -5.525874 -32.234180 -2.805723 4.608292 -29.480012 18.629546 18.604756 9.201137 -20.335710 9.366546 23.517108 3.907240 15.631122 30.652212 0.949976 0.000000 0.000000 -0.000000 5.062916 7.259549 -60.393489 0.009028 -4.396065 -76.234740 -0.014955 1.943550 -28.702791 0.000000 -0.000003 -0.000001 -0.063972 4.758036 -60.986814 -0.080425 -4.896943 -84.974363 -0.077669 1.572464 -47.862701 -0.000003 0.000002 0.000004 -0.034405 -0.057007 -61.362269 -0.169957 -1.351962 -91.625362 -0.058873 1.209373 -28.345020 0.000001 -0.000004 0.000003 -4.255101 -2.157323 -63.603172 -0.059586 -0.064765 -85.011075 -0.006183 -0.027521 -25.011489 -0.000003 0.000000 -0.000002 0.636231 13.855902 9.110396 0.000000 0.000000 0.000000 35.361013 66.921586 -19.125218 1.039646 84.331103 -12.064334 -30.137113 -3.581582 -2.922845 15.959772 -4.187777 29.032211 -14.791919 -41.235512 -16.515534 1.538917 -36.186486 -16.491852 -0.000002 0.000000 0.000002 5.358216 -4.863575 67.585043 0.006245 4.394833 68.693425 -0.015223 -1.944180 51.003799 0.000006 -0.000001 -0.000000 -0.076816 -4.752200 70.834888 -0.076452 4.897893 82.216333 -0.094629 -1.559168 59.800335 0.000000 0.000003 -0.000000 -1.164523 -6.475320 73.357482 -0.172076 1.351247 92.834381 -0.068419 -1.195398 42.966275 -0.000001 0.000002 0.000001 -5.344949 -12.802390 81.125251 -0.058394 0.065299 84.695992 -0.011916 0.037071 34.883303 0.000000 0.000002 0.000000 -39.518293 10.645137 55.037176 36.007904 -4.271366 -8.869381 11.328846 -0.579803 -26.768020 -0.017718 -0.002752 -0.037428 0.000000 -0.000002 0.000000 -38.186382 1.929470 -30.218444 56.600849 12.320777 -5.711013 -15.764847 -6.299592 24.842045 -0.005261 -0.000082 -0.000156 0.000000 -0.000000 -0.000000 
0.342135 70.232521 0.083536 -5.289316 -75.155536 -3.565324 2.895352 -0.472231 -2.225238 5.790270 -0.823356 -3.057950 0.000000 0.000000 0.000000 5.790282 -0.823173 -3.058012 -2.569101 24.400593 7.466807 0.176402 27.894274 -8.544351 0.000000 -0.000002 0.000001 0.268781 -7.020026 -19.607416 0.000000 0.000000 0.000000 -39.486874 -20.023365 -2.512430 -5.275125 -32.657129 -2.924885 4.324736 -29.568637 18.253867 18.604754 9.201131 -20.335703 9.366547 23.517108 3.907240 15.631120 30.652216 0.949976 0.000000 0.000001 0.000000 5.062916 7.259546 -60.393482 0.009027 -4.396064 -76.234740 -0.014954 1.943556 -28.702791 0.000002 -0.000001 -0.000000 -0.063970 4.758036 -60.986814 -0.080426 -4.896943 -84.974363 -0.077667 1.572462 -47.862701 -0.000001 0.000003 -0.000001 -0.034405 -0.057011 -61.362262 -0.169961 -1.351961 -91.625362 -0.058874 1.209377 -28.345024 -0.000002 -0.000002 0.000002 -4.255097 -2.157325 -63.603166 -0.059589 -0.064767 -85.011075 -0.006181 -0.027525 -25.011489 -0.000002 0.000000 -0.000002 0.634733 13.830900 9.149994 0.000000 0.000000 0.000000 35.145073 66.734814 -18.517000 1.797661 83.924003 -12.613998 -28.913810 -1.718599 -3.791596 15.959773 -4.187775 29.032207 -14.791920 -41.235508 -16.515536 1.538917 -36.186486 -16.491854 -0.000002 -0.000001 0.000002 5.358214 -4.863574 67.585043 0.006246 4.394833 68.693425 -0.015223 -1.944181 51.003802 -0.000003 -0.000001 -0.000001 -0.076816 -4.752200 70.834888 -0.076452 4.897888 82.216326 -0.094628 -1.559168 59.800335 0.000001 0.000001 0.000001 -1.164523 -6.475319 73.357475 -0.172081 1.351249 92.834381 -0.068414 -1.195397 42.966275 0.000004 -0.000000 0.000002 -5.344947 -12.802390 81.125251 -0.058395 0.065301 84.695992 -0.011913 0.037071 34.883299 -0.000002 -0.000001 -0.000001 -38.684733 10.988311 55.016911 35.622558 -3.815585 -8.777353 11.299765 -0.554231 -27.008317 -0.017731 -0.002753 -0.037437 -0.000000 -0.000000 0.000000 -38.074804 1.805551 -29.929527 56.161070 12.510889 -5.707617 -15.414940 -6.128149 24.584631 -0.005277 -0.000108 -0.000161 -0.000000 0.000000 -0.000000 
0.379100 70.574570 0.054764 -6.711048 -75.733950 -4.981044 2.816285 -0.436242 -2.186582 5.633339 -0.706297 -2.949005 0.000000 0.000000 0.000000 5.633324 -0.706328 -2.949012 -2.701123 24.509319 7.478630 0.204688 28.042605 -8.562602 0.000000 0.000001 -0.000000 0.235411 -7.052434 -19.747767 0.000000 0.000000 0.000000 -38.990890 -19.413544 -3.073293 -4.884510 -33.341316 -3.229812 3.787389 -29.109839 17.675555 18.604757 9.201136 -20.335708 9.366547 23.517108 3.907241 15.631120 30.652212 0.949978 0.000000 -0.000000 0.000000 5.062917 7.259546 -60.393489 0.009028 -4.396065 -76.234740 -0.014952 1.943554 -28.702791 -0.000002 -0.000000 0.000002 -0.063972 4.758039 -60.986814 -0.080427 -4.896941 -84.974363 -0.077668 1.572465 -47.862701 -0.000001 0.000000 0.000002 -0.034400 -0.057010 -61.362269 -0.169958 -1.351962 -91.625362 -0.058874 1.209378 -28.345015 0.000002 -0.000001 0.000001 -4.255096 -2.157323 -63.603172 -0.059586 -0.064764 -85.011075 -0.006183 -0.027522 -25.011489 -0.000003 0.000001 -0.000000 0.630149 13.759758 9.265012 0.000000 0.000000 0.000000 34.557909 66.432052 -17.348028 2.853550 83.375368 -13.338979 -27.579621 0.446930 -4.373109 15.959770 -4.187775 29.032204 -14.791920 -41.235508 -16.515539 1.538917 -36.186489 -16.491854 0.000002 0.000000 0.000004 5.358207 -4.863574 67.585043 0.006248 4.394822 68.693425 -0.015226 -1.944181 51.003796 0.000005 -0.000000 -0.000000 -0.076819 -4.752198 70.834888 -0.076452 4.897886 82.216333 -0.094629 -1.559168 59.800335 0.000003 0.000000 0.000000 -1.164527 -6.475319 73.357482 -0.172079 1.351249 92.834381 -0.068419 -1.195396 42.966278 -0.000002 -0.000002 -0.000000 -5.344948 -12.802392 81.125251 -0.058397 0.065301 84.695992 -0.011921 0.037068 34.883296 0.000001 0.000001 0.000000 -37.641589 11.483740 55.053749 35.121379 -3.269139 -8.676485 11.280359 -0.524364 -27.305754 -0.017723 -0.002745 -0.037410 0.000000 0.000000 -0.000000 -37.955481 1.691275 -29.521153 55.638461 12.761943 -5.704900 -14.965865 -5.908333 24.244006 -0.005272 -0.000103 -0.000159 -0.000000 0.000000 -0.000000 
